<?xml version="1.0" standalone="no"?>
<!DOCTYPE svg PUBLIC "-//W3C//DTD SVG 20010904//EN"
 "http://www.w3.org/TR/2001/REC-SVG-20010904/DTD/svg10.dtd">
<svg version="1.0" xmlns="http://www.w3.org/2000/svg"
 width="200.000000pt" height="200.000000pt" viewBox="0 0 200.000000 200.000000"
 preserveAspectRatio="xMidYMid meet">

<g transform="translate(0.000000,200.000000) scale(0.100000,-0.100000)"
fill="#000000" stroke="none">
<path d="M958 1449 c-19 -32 -35 -36 -64 -14 -26 20 -36 19 -29 -5 11 -34 -12
-60 -52 -60 -35 0 -35 0 -19 -25 23 -36 20 -53 -15 -74 l-31 -19 31 -16 c19
-10 31 -24 31 -36 0 -11 6 -20 14 -20 12 0 13 11 9 53 -6 59 8 96 51 136 39
37 128 41 176 9 59 -39 88 -126 60 -179 -9 -16 -7 -19 10 -19 13 0 20 7 20 20
0 12 12 28 29 38 l29 18 -29 16 c-32 19 -37 43 -13 76 15 22 14 22 -24 22 -42
0 -52 11 -52 55 0 24 0 24 -31 7 -30 -17 -30 -17 -57 15 l-27 32 -17 -30z"/>
<path d="M950 1106 c0 -3 5 -17 10 -32 11 -29 23 -24 35 14 5 19 3 22 -19 22
-14 0 -26 -2 -26 -4z"/>
<path d="M1271 771 c-7 -5 -11 -13 -7 -19 7 -12 -47 -197 -64 -217 -16 -20 4
-27 61 -23 35 2 43 6 41 20 -2 10 11 63 29 117 17 55 29 107 26 116 -7 17 -63
21 -86 6z"/>
<path d="M1402 772 c-7 -5 -10 -16 -7 -24 8 -20 -42 -187 -63 -210 -13 -16
-13 -18 0 -23 9 -4 35 -5 59 -3 39 3 44 6 46 29 1 15 14 65 28 112 33 105 31
121 -15 125 -19 1 -41 -2 -48 -6z"/>
<path d="M127 748 c-20 -16 -32 -64 -19 -72 6 -3 24 5 40 19 16 14 34 25 40
25 11 0 -36 -172 -51 -181 -19 -13 5 -29 43 -29 51 0 69 8 64 28 -6 25 39 175
54 180 7 2 16 -5 19 -16 6 -25 28 -35 41 -19 19 24 25 59 11 68 -22 14 -223
11 -242 -3z"/>
<path d="M1074 696 c-43 -19 -64 -53 -64 -103 0 -35 5 -46 27 -60 35 -23 96
-23 122 1 31 28 27 46 -7 36 -29 -8 -62 3 -62 20 0 6 17 10 38 10 21 0 48 7
60 16 24 17 29 56 9 72 -22 19 -90 23 -123 8z m47 -55 c-10 -18 -31 -29 -31
-16 0 18 25 54 33 46 5 -5 4 -17 -2 -30z"/>
<path d="M1543 696 c-51 -23 -79 -98 -53 -146 12 -23 73 -44 102 -35 27 9 58
34 58 48 0 5 -12 7 -27 4 -29 -5 -63 7 -63 23 0 6 17 10 38 10 21 0 48 7 60
16 24 17 29 56 9 72 -23 19 -90 23 -124 8z m43 -64 c-24 -24 -31 -6 -10 25 16
24 19 26 22 9 2 -10 -3 -25 -12 -34z"/>
<path d="M385 689 c-4 -5 -4 -13 -1 -17 6 -11 -26 -115 -42 -134 -17 -22 -5
-28 53 -28 56 0 70 7 55 25 -7 8 -4 28 6 61 21 62 29 71 43 45 16 -29 49 -27
63 4 19 41 -1 53 -92 53 -44 1 -82 -3 -85 -9z"/>
<path d="M610 685 c-18 -22 -5 -45 26 -45 17 0 28 6 31 20 5 20 18 26 26 13 3
-5 1 -18 -4 -30 -7 -20 -16 -23 -57 -23 -36 0 -54 -5 -66 -19 -24 -26 -17 -62
15 -80 22 -12 29 -12 56 1 25 13 33 13 48 1 25 -18 39 -17 66 7 18 15 21 22
11 28 -10 7 -10 15 -2 36 27 72 1 106 -82 106 -37 0 -60 -5 -68 -15z m60 -99
c0 -16 -18 -31 -27 -22 -8 8 5 36 17 36 5 0 10 -6 10 -14z"/>
<path d="M809 698 c0 -2 -2 -19 -3 -38 -2 -19 -7 -56 -11 -82 -7 -46 -7 -48
21 -58 44 -17 93 -3 135 39 41 40 55 77 45 116 -5 20 -13 25 -36 25 -23 0 -31
-5 -36 -24 -3 -13 -1 -34 6 -45 14 -27 5 -58 -22 -72 -29 -16 -33 -5 -18 55
17 72 11 86 -40 86 -22 0 -40 -1 -41 -2z"/>
<path d="M1715 689 c-4 -5 -4 -13 -1 -18 8 -12 -23 -113 -40 -132 -20 -22 -8
-29 52 -29 50 0 76 12 55 24 -9 6 15 104 29 120 5 4 13 -1 19 -13 23 -42 79
-14 67 33 -6 23 -9 24 -91 25 -46 0 -87 -4 -90 -10z"/>
</g>
</svg>
